<svg width="31" height="32" viewBox="0 0 31 32" fill="none" xmlns="http://www.w3.org/2000/svg">
<mask id="path-1-inside-1_338_2093" fill="white">
<path fill-rule="evenodd" clip-rule="evenodd" d="M13.326 5.5H17.6737L18.803 8.22718C19.5276 8.51485 20.2032 8.89435 20.8142 9.35068L23.8262 8.93146L26 12.5688L24.1187 14.8784C24.1693 15.2453 24.1955 15.6197 24.1955 16C24.1955 16.3803 24.1693 16.7547 24.1187 17.1216L26 19.4312L23.8261 23.0685L20.8142 22.6493C20.2032 23.1057 19.5276 23.4852 18.803 23.7728L17.6737 26.5H13.326L12.1967 23.7726C11.4723 23.485 10.797 23.1056 10.1862 22.6495L7.17389 23.0688L5.00003 19.4315L6.88151 17.1216C6.83082 16.7547 6.80466 16.3803 6.80466 16C6.80466 15.6197 6.83082 15.2453 6.8815 14.8784L5 12.5685L7.17386 8.93123L10.1862 9.3505C10.797 8.89436 11.4723 8.51499 12.1967 8.22738L13.326 5.5ZM15.5 18.1C16.7006 18.1 17.6739 17.1598 17.6739 16C17.6739 14.8402 16.7006 13.9 15.5 13.9C14.2994 13.9 13.3261 14.8402 13.3261 16C13.3261 17.1598 14.2994 18.1 15.5 18.1Z"/>
</mask>
<path d="M17.6737 5.5L18.5976 5.11743L18.342 4.5H17.6737V5.5ZM13.326 5.5V4.5H12.6577L12.4021 5.11743L13.326 5.5ZM18.803 8.22718L17.879 8.60975L18.0409 9.00056L18.434 9.15662L18.803 8.22718ZM20.8142 9.35068L20.2158 10.1519L20.545 10.3978L20.952 10.3411L20.8142 9.35068ZM23.8262 8.93146L24.6846 8.41844L24.3446 7.84966L23.6883 7.94101L23.8262 8.93146ZM26 12.5688L26.7754 13.2003L27.2178 12.6571L26.8584 12.0558L26 12.5688ZM24.1187 14.8784L23.3433 14.2469L23.0685 14.5842L23.1281 15.0153L24.1187 14.8784ZM24.1187 17.1216L23.1281 16.9848L23.0685 17.4158L23.3433 17.7531L24.1187 17.1216ZM26 19.4312L26.8584 19.9442L27.2178 19.3429L26.7753 18.7997L26 19.4312ZM23.8261 23.0685L23.6883 24.059L24.3446 24.1503L24.6845 23.5816L23.8261 23.0685ZM20.8142 22.6493L20.952 21.6589L20.545 21.6022L20.2158 21.8481L20.8142 22.6493ZM18.803 23.7728L18.434 22.8434L18.0409 22.9994L17.879 23.3903L18.803 23.7728ZM17.6737 26.5V27.5H18.342L18.5976 26.8826L17.6737 26.5ZM13.326 26.5L12.4021 26.8826L12.6577 27.5H13.326V26.5ZM12.1967 23.7726L13.1206 23.39L12.9588 22.9993L12.5657 22.8432L12.1967 23.7726ZM10.1862 22.6495L10.7846 21.8483L10.4554 21.6024L10.0484 21.659L10.1862 22.6495ZM7.17389 23.0688L6.31551 23.5818L6.65544 24.1506L7.31174 24.0592L7.17389 23.0688ZM5.00003 19.4315L4.2247 18.7999L3.78224 19.3431L4.14165 19.9445L5.00003 19.4315ZM6.88151 17.1216L7.65684 17.7532L7.93164 17.4158L7.8721 16.9848L6.88151 17.1216ZM6.8815 14.8784L7.8721 15.0152L7.93163 14.5842L7.65683 14.2468L6.8815 14.8784ZM5 12.5685L4.14162 12.0555L3.78221 12.6569L4.22467 13.2001L5 12.5685ZM7.17386 8.93123L7.31171 7.94078L6.65541 7.84944L6.31548 8.41822L7.17386 8.93123ZM10.1862 9.3505L10.0484 10.341L10.4554 10.3976L10.7846 10.1517L10.1862 9.3505ZM12.1967 8.22738L12.5657 9.15681L12.9588 9.00073L13.1206 8.60995L12.1967 8.22738ZM17.6737 4.5H13.326V6.5H17.6737V4.5ZM19.7269 7.84461L18.5976 5.11743L16.7498 5.88257L17.879 8.60975L19.7269 7.84461ZM21.4126 8.54949C20.7315 8.04076 19.9788 7.61804 19.1719 7.29773L18.434 9.15662C19.0765 9.41166 19.675 9.74793 20.2158 10.1519L21.4126 8.54949ZM23.6883 7.94101L20.6763 8.36022L20.952 10.3411L23.964 9.92191L23.6883 7.94101ZM26.8584 12.0558L24.6846 8.41844L22.9678 9.44447L25.1416 13.0818L26.8584 12.0558ZM24.894 15.51L26.7754 13.2003L25.2247 11.9372L23.3433 14.2469L24.894 15.51ZM25.1955 16C25.1955 15.5738 25.1662 15.1537 25.1093 14.7416L23.1281 15.0153C23.1725 15.337 23.1955 15.6656 23.1955 16H25.1955ZM25.1093 17.2584C25.1662 16.8463 25.1955 16.4262 25.1955 16H23.1955C23.1955 16.3344 23.1725 16.6631 23.1281 16.9848L25.1093 17.2584ZM26.7753 18.7997L24.894 16.49L23.3433 17.7531L25.2247 20.0628L26.7753 18.7997ZM24.6845 23.5816L26.8584 19.9442L25.1416 18.9182L22.9678 22.5555L24.6845 23.5816ZM20.6763 23.6398L23.6883 24.059L23.964 22.0781L20.952 21.6589L20.6763 23.6398ZM19.1719 24.7023C19.9788 24.382 20.7315 23.9592 21.4126 23.4505L20.2158 21.8481C19.675 22.2521 19.0765 22.5883 18.434 22.8434L19.1719 24.7023ZM18.5976 26.8826L19.7269 24.1554L17.879 23.3903L16.7498 26.1174L18.5976 26.8826ZM13.326 27.5H17.6737V25.5H13.326V27.5ZM11.2728 24.1552L12.4021 26.8826L14.2499 26.1174L13.1206 23.39L11.2728 24.1552ZM9.58784 23.4507C10.2687 23.9592 11.0211 24.3818 11.8277 24.702L12.5657 22.8432C11.9235 22.5882 11.3252 22.2521 10.7846 21.8483L9.58784 23.4507ZM7.31174 24.0592L10.3241 23.64L10.0484 21.659L7.03603 22.0783L7.31174 24.0592ZM4.14165 19.9445L6.31551 23.5818L8.03227 22.5557L5.85841 18.9184L4.14165 19.9445ZM6.10617 16.4901L4.2247 18.7999L5.77536 20.063L7.65684 17.7532L6.10617 16.4901ZM5.80466 16C5.80466 16.4262 5.83399 16.8464 5.89091 17.2585L7.8721 16.9848C7.82766 16.6631 7.80466 16.3344 7.80466 16H5.80466ZM5.89091 14.7416C5.83398 15.1537 5.80466 15.5738 5.80466 16H7.80466C7.80466 15.6656 7.82766 15.3369 7.8721 15.0152L5.89091 14.7416ZM4.22467 13.2001L6.10617 15.5099L7.65683 14.2468L5.77533 11.937L4.22467 13.2001ZM6.31548 8.41822L4.14162 12.0555L5.85838 13.0816L8.03224 9.44425L6.31548 8.41822ZM10.3241 8.36005L7.31171 7.94078L7.036 9.92169L10.0484 10.341L10.3241 8.36005ZM11.8277 7.29796C11.0211 7.6182 10.2687 8.04077 9.58784 8.54929L10.7846 10.1517C11.3252 9.74794 11.9235 9.41179 12.5657 9.15681L11.8277 7.29796ZM12.4021 5.11743L11.2728 7.84481L13.1206 8.60995L14.2499 5.88257L12.4021 5.11743ZM16.6739 16C16.6739 16.5752 16.1812 17.1 15.5 17.1V19.1C17.22 19.1 18.6739 17.7444 18.6739 16H16.6739ZM15.5 14.9C16.1812 14.9 16.6739 15.4248 16.6739 16H18.6739C18.6739 14.2556 17.22 12.9 15.5 12.9V14.9ZM14.3261 16C14.3261 15.4248 14.8188 14.9 15.5 14.9V12.9C13.78 12.9 12.3261 14.2556 12.3261 16H14.3261ZM15.5 17.1C14.8188 17.1 14.3261 16.5752 14.3261 16H12.3261C12.3261 17.7444 13.78 19.1 15.5 19.1V17.1Z" fill="white" mask="url(#path-1-inside-1_338_2093)"/>
</svg>
