<svg width="32" height="32" viewBox="0 0 32 32" fill="none" xmlns="http://www.w3.org/2000/svg">
<path fill-rule="evenodd" clip-rule="evenodd" d="M22 14.5C22 18.6421 18.6421 22 14.5 22C10.3579 22 7 18.6421 7 14.5C7 10.3579 10.3579 7 14.5 7C18.6421 7 22 10.3579 22 14.5ZM19.8888 21.0738C18.4222 22.2775 16.5454 23 14.5 23C9.80558 23 6 19.1944 6 14.5C6 9.80558 9.80558 6 14.5 6C19.1944 6 23 9.80558 23 14.5C23 16.7878 22.0962 18.8644 20.6262 20.3924L25.9993 25.2581C26.204 25.4435 26.2197 25.7597 26.0343 25.9644C25.849 26.1691 25.5328 26.1847 25.3281 25.9994L19.8888 21.0738Z" fill="white"/>
</svg>
