<svg width="40" height="40" viewBox="0 0 40 40" fill="none" xmlns="http://www.w3.org/2000/svg">
<circle cx="20" cy="20" r="20" fill="#001832"/>
<path d="M20.5 27C20.2204 27 19.9862 26.9075 19.7974 26.7226C19.6079 26.5384 19.5132 26.3098 19.5132 26.0369V15.2745L14.7023 19.9695C14.5049 20.1621 14.2704 20.2584 13.9987 20.2584C13.7276 20.2584 13.4934 20.1621 13.2961 19.9695C13.0987 19.7769 13 19.5522 13 19.2953C13 19.0385 13.0987 18.8138 13.2961 18.6212L19.8092 12.2648C19.9079 12.1685 20.0148 12.1002 20.1299 12.0597C20.2451 12.0199 20.3684 12 20.5 12C20.6316 12 20.7592 12.0199 20.8829 12.0597C21.0059 12.1002 21.1086 12.1685 21.1908 12.2648L27.7039 18.6212C27.9013 18.8138 28 19.0385 28 19.2953C28 19.5522 27.9013 19.7769 27.7039 19.9695C27.5066 20.1621 27.272 20.2584 27.0003 20.2584C26.7293 20.2584 26.4951 20.1621 26.2977 19.9695L21.4868 15.2745V26.0369C21.4868 26.3098 21.3924 26.5384 21.2036 26.7226C21.0141 26.9075 20.7796 27 20.5 27Z" fill="white"/>
</svg>
